With: John Thaw, Joachim Paul Assböck and John Axon

Monsignor Renard vertelt het verhaal van de Duitse bezetting van Frankrijk tijdens de Tweede Wereldoorlog vanuit het perspectief van een eenvoudige priester. Zijn geloof wordt zwaar op de proef gesteld als hij moet kiezen tussen de vreedzaamheid van het Christendom en het noodzakelijke geweld van het verzet. Na verloop van tijd neigt Renard er meer en meer toe om zelf een actieve rol te gaan spelen aan de zijde van de vrije Fransen. Daarmee loopt zijn veiligheid steeds meer gevaar en rijst de vraag wie hij eigenlijk kan vertrouwen. Er zijn heel wat collaborateurs die de Gestapo helpen bij het ontmaskeren van leden van de Résistance. Renard beseft dat zijn status als priester hem maar tot op zekere hoogte zal beschermen. Tegelijkertijd gaat het leven van alledag door. Renard wordt gewoon verwacht bij dopen, huwelijken en begrafenissen. Hij weet dat hij al zijn moed, kracht en doorzettingsvermogen nodig zal hebben om zijn kudde veilig door de storm te leiden...

Created by Russell Lewis, the four-episode British miniseries Monsignor Renard was set in the French town of St-Josse-des-Bois during the Nazi occupation of the 1940s. The title character, played by John Thaw of Inspector Morse fame, initially tried to keep himself above politics. Ultimately, however, Monsignor Renard became intimately involved with the French Resistance movement, rallying his fellow townsmen against their Nazi "hosts."
 
http://www.imdb.com/title/tt0234265	

------------------------ Dutch Friends ------------------------
---------------------------------------------------------------
- Bezoek ook eens mijn vrienden op:  http://www.Film-Test.nl --
----- voor mijn Nederlandse Sync. ondertitels ---- en meer ----
------- http://www.Film-Test.nl ---- Over Films en meer -------
---------------------------------------------------------------


General:

Complete name                    : Monsignor Renard 1 Monsignor Renard.avi
Format                           : AVI
Format/Info                      : Audio Video Interleave
File size                        : 1.27 GiB
Duration                         : 1h 14mn
Overall bit rate                 : 2 427 Kbps

Video:

Format                           : MPEG-4 Visual
Format profile                   : Simple@L3
Format settings, BVOP            : No
Format settings, QPel            : No
Format settings, GMC             : No warppoints
Format settings, Matrix          : Default (H.263)
Codec ID                         : XVID
Codec ID/Hint                    : XviD
Duration                         : 1h 14mn
Bit rate                         : 1 969 Kbps
Width                            : 640 pixels
Height                           : 480 pixels
Display aspect ratio             : 4:3
Frame rate                       : 25.000 fps
Color space                      : YUV
Chroma subsampling               : 4:2:0
Bit depth                        : 8 bits
Scan type                        : Progressive
Compression mode                 : Lossy
Bits/(Pixel*Frame)               : 0.256
Stream size                      : 1.03 GiB (81%)
Writing library                  : XviD 1.1.2 (UTC 2006-11-01)

Audio:

Format                           : AC-3
Format/Info                      : Audio Coding 3
Mode extension                   : CM (complete main)
Codec ID                         : 2000
Duration                         : 1h 14mn
Bit rate mode                    : Constant
Bit rate                         : 448 Kbps
Channel(s)                       : 6 channels
Channel positions                : Front: L C R, Side: L R, LFE
Sampling rate                    : 48.0 KHz
Bit depth                        : 16 bits
Compression mode                 : Lossy
Stream size                      : 239 MiB (18%)
Alignment                        : Aligned on interleaves
Interleave, duration             : 32 ms (0.80 video frame)
Interleave, preload duration     : 288 ms